<svg width="182" height="34" viewBox="0 0 182 34" fill="none" xmlns="http://www.w3.org/2000/svg">
<path d="M15.5449 1.35547H1.3418V12.1484H8.03906C10.5352 12.1836 12.5039 12.8105 13.9453 14.0293C15.3867 15.2363 16.1074 16.918 16.1074 19.0742C16.1074 21.207 15.3809 22.8945 13.9277 24.1367C12.4863 25.3672 10.4766 25.9883 7.89844 26H0.392578V0.40625H15.5449V1.35547ZM1.3418 13.0977V25.0508H7.82812C10.1484 25.0508 11.9473 24.5176 13.2246 23.4512C14.502 22.373 15.1406 20.9023 15.1406 19.0391C15.1406 17.2578 14.5078 15.8281 13.2422 14.75C11.9883 13.6719 10.2363 13.1211 7.98633 13.0977H1.3418ZM28.3418 24.5234L28.4648 24.1719L35.0391 6.98047H36.0938L27.5859 29.3047L27.1641 30.3594C26.25 32.5742 24.7383 33.6816 22.6289 33.6816C21.9492 33.6816 21.4805 33.6172 21.2227 33.4883L21.2051 32.5918C21.5801 32.6973 22.0078 32.75 22.4883 32.75C23.4844 32.75 24.3105 32.457 24.9668 31.8711C25.623 31.2969 26.1914 30.3535 26.6719 29.041L27.832 25.8945L20.2559 6.98047H21.293L28.3418 24.5234ZM45.2871 15.418L51.3516 6.98047H52.5469L45.8672 16.2441L52.8984 26H51.7207L45.2695 17.0703L38.8359 26H37.6582L44.6895 16.2441L38.0098 6.98047H39.2051L45.2871 15.418ZM84.0293 15.1191C84.0293 17.334 83.6309 19.2969 82.834 21.0078C82.0488 22.707 80.9238 24.0254 79.459 24.9629C77.9941 25.8887 76.3066 26.3516 74.3965 26.3516C71.5137 26.3516 69.1816 25.3262 67.4004 23.2754C65.6191 21.2246 64.7285 18.459 64.7285 14.9785V13.1152H58.9805V26H58.0312V0.40625H58.9805V12.166H64.7285V11.4453C64.7285 7.94141 65.6133 5.16992 67.3828 3.13086C69.1523 1.08008 71.4785 0.0546875 74.3613 0.0546875C76.2715 0.0546875 77.959 0.523438 79.4238 1.46094C80.9004 2.38672 82.0371 3.71094 82.834 5.43359C83.6309 7.14453 84.0293 9.0957 84.0293 11.2871V15.1191ZM83.0801 11.252C83.0801 8.1582 82.2949 5.67969 80.7246 3.81641C79.1543 1.94141 77.0332 1.00391 74.3613 1.00391C71.7246 1.00391 69.6211 1.93555 68.0508 3.79883C66.4805 5.65039 65.6953 8.17578 65.6953 11.375V15.1191C65.6953 17.1582 66.0469 18.9629 66.75 20.5332C67.4648 22.0918 68.4785 23.293 69.791 24.1367C71.1035 24.9805 72.6387 25.4023 74.3965 25.4023C77.0684 25.4023 79.1836 24.4707 80.7422 22.6074C82.3008 20.7441 83.0801 18.2012 83.0801 14.9785V11.252ZM104.771 16.666C104.771 19.6309 104.133 21.9863 102.855 23.7324C101.578 25.4785 99.8379 26.3516 97.6348 26.3516C96.1934 26.3516 94.9102 26.0586 93.7852 25.4727C92.6602 24.8867 91.7812 24.0781 91.1484 23.0469V33.3125H90.1992V6.98047H91.1484V10.373C91.8047 9.16602 92.6895 8.24023 93.8027 7.5957C94.916 6.95117 96.1816 6.62891 97.5996 6.62891C99.8262 6.62891 101.578 7.48438 102.855 9.19531C104.133 10.8945 104.771 13.2852 104.771 16.3672V16.666ZM103.805 16.2969C103.805 13.5664 103.26 11.4336 102.17 9.89844C101.092 8.35156 99.5742 7.57812 97.6172 7.57812C96.0234 7.57812 94.6699 7.99414 93.5566 8.82617C92.4434 9.64648 91.6406 10.8301 91.1484 12.377V21.2715C91.6406 22.584 92.4434 23.6035 93.5566 24.3301C94.6816 25.0449 96.0469 25.4023 97.6523 25.4023C99.5977 25.4023 101.109 24.6289 102.188 23.082C103.266 21.5352 103.805 19.2734 103.805 16.2969ZM118.676 18.0723L127.412 0.40625H128.572L118.061 21.4473L117.428 22.6426C116.057 25.127 114.193 26.3691 111.838 26.3691C111.17 26.3691 110.66 26.293 110.309 26.1406L110.572 25.2441C110.9 25.3613 111.352 25.4199 111.926 25.4199C112.945 25.4199 113.854 25.1152 114.65 24.5059C115.459 23.8848 116.227 22.8594 116.953 21.4297L118.148 19.0918L107.514 0.40625H108.691L118.676 18.0723ZM144.814 26H143.865V16.8242C143.021 17.2344 142.066 17.5742 141 17.8438C139.945 18.1016 139.055 18.2305 138.328 18.2305C136.43 18.2305 134.988 18.0078 134.004 17.5625C133.02 17.1055 132.293 16.3672 131.824 15.3477C131.367 14.3164 131.139 12.9102 131.139 11.1289V6.98047H132.088V11.1289C132.088 12.6875 132.287 13.9121 132.686 14.8027C133.084 15.6816 133.711 16.3145 134.566 16.7012C135.434 17.0879 136.688 17.2812 138.328 17.2812C139.266 17.2344 140.268 17.082 141.334 16.8242C142.412 16.5547 143.256 16.2559 143.865 15.9277V6.98047H144.814V26ZM157.717 26.3516C156.182 26.3516 154.77 25.9414 153.48 25.1211C152.203 24.2891 151.201 23.1523 150.475 21.7109C149.748 20.2695 149.385 18.6699 149.385 16.9121V16.1211C149.385 14.3633 149.736 12.752 150.439 11.2871C151.143 9.82227 152.109 8.67969 153.34 7.85938C154.57 7.03906 155.912 6.62891 157.365 6.62891C159.486 6.62891 161.221 7.38477 162.568 8.89648C163.916 10.4082 164.59 12.3945 164.59 14.8555V15.8574H150.334V16.8945C150.334 18.4414 150.656 19.877 151.301 21.2012C151.957 22.5137 152.854 23.5449 153.99 24.2949C155.139 25.0449 156.381 25.4199 157.717 25.4199C158.994 25.4199 160.078 25.209 160.969 24.7871C161.871 24.3535 162.668 23.6914 163.359 22.8008L164.027 23.2754C162.609 25.3262 160.506 26.3516 157.717 26.3516ZM157.365 7.57812C155.514 7.57812 153.943 8.26953 152.654 9.65234C151.365 11.0234 150.609 12.7754 150.387 14.9082H163.641V14.6797C163.641 13.3906 163.365 12.1953 162.814 11.0938C162.275 9.98047 161.525 9.11914 160.564 8.50977C159.615 7.88867 158.549 7.57812 157.365 7.57812ZM181.992 7.94727H174.521V26H173.572V7.94727H166.488V6.98047H181.992V7.94727Z" fill="white"/>
</svg>
